<svg xmlns="http://www.w3.org/2000/svg" width="24" height="25" fill="none"><g fill="#1A1B22" clip-path="url(#a)"><path d="M19 2.5h-1v-1a1 1 0 0 0-2 0v1H8v-1a1 1 0 0 0-2 0v1H5a5.006 5.006 0 0 0-5 5v12a5.006 5.006 0 0 0 5 5h14a5.006 5.006 0 0 0 5-5v-12a5.006 5.006 0 0 0-5-5Zm-17 5a3 3 0 0 1 3-3h14a3 3 0 0 1 3 3v1H2v-1Zm17 15H5a3 3 0 0 1-3-3v-9h20v9a3 3 0 0 1-3 3Z"/><path d="M12 17a1.5 1.5 0 1 0 0-3 1.5 1.5 0 0 0 0 3ZM7 17a1.5 1.5 0 1 0 0-3 1.5 1.5 0 0 0 0 3ZM17 17a1.5 1.5 0 1 0 0-3 1.5 1.5 0 0 0 0 3Z"/></g><defs><clipPath id="a"><path fill="#fff" d="M0 .5h24v24H0z"/></clipPath></defs></svg>