<svg width="20" height="20" viewBox="0 0 20 20" fill="none" xmlns="http://www.w3.org/2000/svg">
<rect x="0.5" y="0.5" width="19" height="19" rx="3.5" fill="white" stroke="#1D6BF3"/>
<path x="10" d="M8.75261 13.2665L5.48678 10.0007C5.3305 9.84443 5.11858 9.75667 4.89761 9.75667C4.67664 9.75667 4.46471 9.84443 4.30844 10.0007C4.15222 10.1569 4.06445 10.3689 4.06445 10.5898C4.06445 10.8108 4.15222 11.0227 4.30844 11.179L7.57428 14.4448C7.72905 14.5997 7.91281 14.7225 8.11506 14.8063C8.31732 14.8901 8.5341 14.9332 8.75303 14.9332C8.97195 14.9332 9.18873 14.8901 9.39099 14.8063C9.59324 14.7225 9.777 14.5997 9.93178 14.4448L17.6418 6.73482C17.798 6.57855 17.8858 6.36663 17.8858 6.14566C17.8858 5.92469 17.798 5.71276 17.6418 5.55649C17.4855 5.40026 17.2736 5.3125 17.0526 5.3125C16.8316 5.3125 16.6197 5.40026 16.4634 5.55649L8.75261 13.2665Z" fill="#1D6BF3"/>
</svg>
