<svg xmlns="http://www.w3.org/2000/svg" width="25" height="25" fill="none"><path fill="#1A1B22" d="M21.68 9.44a1.307 1.307 0 0 0-.06-.27v-.09a1.07 1.07 0 0 0-.19-.28l-6-6a1.071 1.071 0 0 0-.28-.19.32.32 0 0 0-.09 0 .88.88 0 0 0-.33-.11h-4.05a3 3 0 0 0-3 3v1h-1a3 3 0 0 0-3 3v10a3 3 0 0 0 3 3h8a3 3 0 0 0 3-3v-1h1a3 3 0 0 0 3-3V9.44Zm-6-3.53 2.59 2.59h-1.59a1 1 0 0 1-1-1V5.91Zm0 13.59a1 1 0 0 1-1 1h-8a1 1 0 0 1-1-1v-10a1 1 0 0 1 1-1h1v7a3 3 0 0 0 3 3h5v1Zm4-4a1 1 0 0 1-1 1h-8a1 1 0 0 1-1-1v-10a1 1 0 0 1 1-1h3v3a3 3 0 0 0 3 3h3v5Z"/></svg>