<svg xmlns="http://www.w3.org/2000/svg" width="24" height="25" fill="none"><g clip-path="url(#a)"><path fill="#000" d="M22.323 9.06h-1.512V7.547c0-.925-.753-1.677-1.677-1.677h-1.513V4.357c0-.927-.752-1.676-1.676-1.676H1.677C.754 2.68 0 3.428 0 4.357v9.907c0 .924.752 1.676 1.677 1.676h1.512v1.513c0 .925.753 1.677 1.677 1.677H6.38v1.512c0 .925.752 1.677 1.676 1.677h14.268c.925 0 1.677-.752 1.677-1.677v-9.906c0-.924-.752-1.676-1.677-1.676Zm-7.589-4.705L8.811 10.16 2.887 4.355h11.847Zm-13.06 9.909V5.512l6.55 6.419a.837.837 0 0 0 1.173 0l6.55-6.42-.002 8.755-14.27-.002Zm3.19 3.189V15.94h11.08c.925 0 1.677-.752 1.677-1.676v-6.72l1.515.001v.002l-.002 9.908-14.27-.002Zm17.46 3.192-14.27-.003V19.13h11.08c.925 0 1.677-.752 1.677-1.677v-6.719h1.515v.002l-.003 9.909Z"/></g><defs><clipPath id="a"><path fill="#fff" d="M0 .5h24v24H0z"/></clipPath></defs></svg>