<svg width="24" height="24" viewBox="0 0 24 24" fill="none" xmlns="http://www.w3.org/2000/svg">
<g clip-path="url(#clip0_477_48442)">
<path d="M22.3233 8.55962H20.8106V7.04682C20.8106 6.1223 20.0585 5.37015 19.134 5.37015H17.6212V3.85749C17.6212 2.92993 16.8687 2.18082 15.9446 2.18082H1.67667C0.754453 2.18086 0 2.92758 0 3.85749V13.7637C0 14.6882 0.752156 15.4404 1.67667 15.4404H3.18937V16.9532C3.18937 17.8777 3.94153 18.6298 4.86605 18.6298H6.37875V20.1425C6.37875 21.067 7.13091 21.8192 8.05542 21.8192H22.3234C23.2479 21.8192 24 21.067 24 20.1425V10.2362C24 9.31177 23.2478 8.55962 22.3233 8.55962ZM14.7343 3.85515L8.81063 9.66048L2.88708 3.85529L14.7343 3.85515ZM1.67442 13.7637L1.67475 5.0116L8.22464 11.4306C8.55019 11.7497 9.07116 11.7496 9.39661 11.4306L15.9465 5.01155L15.9447 13.7659L1.67442 13.7637ZM4.8638 16.9531V15.4404H15.9447C16.8692 15.4404 17.6213 14.6882 17.6213 13.7637V7.04485L19.1362 7.04532C19.1362 7.04532 19.1362 7.04583 19.1362 7.04687L19.134 16.9553L4.8638 16.9531ZM22.3233 20.1447L8.05317 20.1424V18.6297H19.134C20.0586 18.6297 20.8107 17.8776 20.8107 16.9531V10.2343L22.3256 10.2347C22.3256 10.2347 22.3257 10.2352 22.3257 10.2362L22.3233 20.1447Z" fill="#B5B5B7"/>
</g>
<defs>
<clipPath id="clip0_477_48442">
<rect width="24" height="24" fill="white"/>
</clipPath>
</defs>
</svg>
