<svg xmlns="http://www.w3.org/2000/svg" width="25" height="25" fill="none"><g clip-path="url(#a)"><path fill="#1A1B22" fill-rule="evenodd" d="M5.552 2.1a1.6 1.6 0 0 0-1.6 1.6v17.6a1.6 1.6 0 0 0 1.6 1.6h12a.8.8 0 1 0 0-1.6h-12V3.7h12a.8.8 0 1 0 0-1.6h-12Zm15.366 6.234a.801.801 0 0 0-1.133 1.132l2.236 2.234H11.15a.8.8 0 1 0 0 1.6h10.87l-2.236 2.234a.8.8 0 1 0 1.133 1.132l3.6-3.6a.8.8 0 0 0 0-1.132l-3.6-3.6Z" clip-rule="evenodd"/></g><defs><clipPath id="a"><path fill="#fff" d="M.752.5h24v24h-24z"/></clipPath></defs></svg>