<svg xmlns="http://www.w3.org/2000/svg" width="24" height="25" fill="none"><path stroke="#1A1B22" stroke-linecap="round" stroke-linejoin="round" stroke-width="2" d="M6.873 17.629c-1.845-1.31-3.305-3.014-4.13-4.09a1.693 1.693 0 0 1 0-2.077C4.236 9.513 7.818 5.5 12 5.5c1.876 0 3.63.807 5.13 1.874"/><path stroke="#1A1B22" stroke-linecap="round" stroke-linejoin="round" stroke-width="2" d="M14.13 10.387a3 3 0 1 0-4.243 4.242M4 20.5l16-16M10 19.204c.65.193 1.323.293 2 .296 4.182 0 7.764-4.013 9.257-5.962a1.694 1.694 0 0 0-.001-2.078A22.937 22.937 0 0 0 19.57 9.5"/></svg>