<svg xmlns="http://www.w3.org/2000/svg" width="24" height="25" fill="none"><path fill="#1A1B22" d="M12.71 11.79a1 1 0 0 0-.33-.21 1 1 0 0 0-.76 0 1 1 0 0 0-.33.21l-2 2a1.004 1.004 0 0 0 1.42 1.42l.29-.3v2.59a1 1 0 0 0 2 0v-2.59l.29.3a1.002 1.002 0 0 0 1.639-.325 1 1 0 0 0-.219-1.095l-2-2ZM20 9.44a1.307 1.307 0 0 0-.06-.27v-.09a1.07 1.07 0 0 0-.19-.28l-6-6a1.071 1.071 0 0 0-.28-.19h-.1a1.099 1.099 0 0 0-.31-.11H7a3 3 0 0 0-3 3v14a3 3 0 0 0 3 3h10a3 3 0 0 0 3-3V9.44Zm-6-3.53 2.59 2.59H15a1 1 0 0 1-1-1V5.91Zm4 13.59a1 1 0 0 1-1 1H7a1 1 0 0 1-1-1v-14a1 1 0 0 1 1-1h5v3a3 3 0 0 0 3 3h3v9Z"/></svg>