<svg xmlns="http://www.w3.org/2000/svg" width="24" height="25" fill="none"><g clip-path="url(#a)"><path fill="#1A1B22" d="m1.14 9.795.17.253c-.34-.01-.696-.043-.764-.19 0-.006.002-.013.004-.02.19-.05.353-.053.59-.043Zm1.806.77.082.25-.192.008.046-.256a.684.684 0 0 0 .064-.003ZM3.6 12.39c-.17.156-.301.26-.402.497-.14-.115-.213-.343-.258-.598-.05-.278-.066-.587-.104-.818l.012-.118.197-.014.502.95.053.1Zm-.254-2.342c.025-.17.05-.341.077-.512l.065-.004c-.048.172-.096.344-.142.516Zm-.137-2.322.9.244a1.983 1.983 0 0 0-.004.04c-.419.31-.806.446-1.014 1.006L3.17 7.77l.039-.043v-.001Zm.84-1.29c-.058.58.024.836.125 1.196.16.114.224.183.172.352-.27-.134-.556-.274-.97-.252a2.699 2.699 0 0 1-.03-.035c.116-.457.342-.738.517-1.1l.187-.162h-.001Zm1.294-.772.039-.003c-.124.428-.174 1.415-.391 1.807-.513-.243-.503-1.296.071-1.712l.28-.092h.001Zm-.478 3.17.432.469c-.17.522-.491.915-.627 1.52l-.255-.02c-.218-.61.327-1.601.42-2.045l.4.046c.05.125.098.25.147.376l-.517-.347ZM6.047 5.66c-.044.507.068.77.098 1.162-.254.13-.509.258-.763.387.047-.525.173-1.04.373-1.527l.292-.022Zm.296-.77.057-.004-.086.247-.169.01.13-.152.068-.101ZM6.4 7.255l-.764.47c.016-.284.378-.667.681-.773l.07.038.013.265Zm.51-1.778c-.047.262-.093.523-.138.785l-.143.09-.076.083c-.138-.194-.173-.67-.143-1.032l.5.074Zm.508-.59c0 .01-.002.018-.003.026L7.22 5.1c-.13.05-.146.048-.31.042.021-.085.045-.17.068-.255h.44Zm.51-1.032L7.7 4.37l-.79-.057.003-.042c.325-.15.61-.328 1.014-.417h.001Zm-.412 1.34.084-.05.073.258-.255-.05.098-.16v.002Zm.666.763c-.303.118-.722.085-.965.22a77.432 77.432 0 0 0-.053-.31l.158-.207c.257.1.514.202.77.303l.09-.006Zm-.651.464-.346.013c-.008-.036-.014-.072-.021-.11.243-.098.651-.107 1.018-.148l-.387.213-.264.032Zm.905 0c-.291.073-.57.33-.761.53-.037-.234.412-.646.627-.775.095.085.105.076.134.245Zm.51-3.083-.004.04-.306.185-.454.033.004-.04.76-.218Zm-.412.774-.098-.145c.23-.193.737-.087 1.019-.058l-.921.203Zm2.278-.76c.425.035.814.135 1.11.32L12 3.668l-.047.066-.407.12c-.245-.034-.49-.07-.734-.105L9.2 3.519l.004-.032a5.375 5.375 0 0 1 1.608-.133v-.001Zm1.693-.136-.09.122a1.23 1.23 0 0 1-.67-.258l.764.097-.004.039Zm1.356.954.211-.08.219.188c-.03.215-.237.39-.396.6l-.122.008c-.332-.55-.751-1.151-1.486-1.363l-.032-.065.297-.12c.499.174.915.438 1.378.59.06.145.041.096-.07.242h.001Zm.614 1.223-.058-.057-.126.009.21-.2-.026.248Zm.225 2.848c.344.298.432.73.289 1.29-.148-.332-.295-.665-.444-.997.05-.074.097-.148.146-.222.003-.024.005-.048.009-.071Zm.1-2.32-.004.048-.181.207-.07-.137c.109-.195.03-.09.173-.11l.082-.008Zm.212-.003.806.299a1.02 1.02 0 0 1-.007.08c-.068.047-.136.092-.204.137l-.807-.298.007-.081.205-.137Zm1.57 1.033-.447-.297-.062-.12c.194-.12.166-.114.371-.074.045.164.092.327.138.49Zm.254-.098-.09.098c-.108-.056-.127-.127-.164-.26l.233.103.021.059Zm-.19-.74-.064.006c.07-.067.14-.134.212-.2-.05.065-.1.13-.148.195Zm1.209 1.299-.125.055-.681-.383a90.608 90.608 0 0 1-.213-.29c.353-.26.366.042.699.207l.32.41Zm.254.228-.254-.093.153-.08.101.173Zm-.31.416c.092.185.092.133.31.105l-.391.338-.373-.712.005-.044c.275-.06.363.04.632.08l.103.166-.285.067h-.001Zm.056.463.509-.278c-.102.23-.235.348-.392.516l-.117-.238Zm1.018.985c-.138.119-.228.157-.489.179l.21.023-.004.037-.717.304-.018-.92.494-.585.09-.043.434 1.005Zm-.255-1.412c1.406-.392 1.134.354.507.923-.17-.307-.339-.615-.507-.923Zm1.273.149c-.518 2.434-.618 2.567-2.45 3.613a3.304 3.304 0 0 0-.096-.145l.065-.272c1.195-.34 1.874-.966 1.803-2.383l.599-.77.079-.043Zm.062 0c-.02-.084-.04-.168-.062-.252l.19-.006-.128.258Zm-3.117 2.367.018-.27.016-.23.176-.058c.009 0 .017-.002.025-.003.05.305 0 .53-.1.775-.086-.055-.103-.078-.135-.214Zm-1.018 2.258.004-.045.334-.8.07-.167.588.04c.009.044.015.087.018.128.026.304-.079.547-.187.864l-.827-.02Zm.255 1.036.007-.4.01-.1.43.032.062-.005c-.099.163-.197.326-.294.49l-.215-.017Zm-.252-1.67.026-.013.203-.105.023-.002-.03.107-.119.409-.106-.364.003-.032Zm-.397 1.285-.115-.115c.112.078.039.002.115.115Zm-.624-.307c.143-.09.298-.062.51-.06l-.063.207c-.175.07-.2.044-.397.023l-.05-.17Zm.312.966.197.466c-.152.103-.305.205-.457.309-.136-.187.012-.71.26-.775Zm-.503-1.62-.064.005.084-.191-.02.187v-.001Zm.733.072-.033-.021.112-.236.037-.001.106.248-.222.01Zm1.763-3.355-.014-.087c.067-.082.11-.133.225-.17l.03.152c-.05.033-.1.065-.149.099l-.092.006Zm-.014.63c-.046.06-.128.095-.186.144l-.069-1.29.255 1.146Zm-.467 1.73c.168-.094.192-.007.212.22h-.509l.009-.08.288-.14Zm-.25-.713.115-.098.093.166-.043.092-.212-.025.047-.135Zm-.047.684-.265.25-.173-.03-.07.008c.04-.08.082-.158.123-.236l.385.008Zm-.96-.147c-.106-.074-.03-.064-.05-.12l.05.12Zm.802-1.152-.86-.446c.04-.59.112-1.268.054-1.876.663.24 1.258 1.319.806 2.322Zm-.605 0c.211.112.2.214.493.304.051.19-.027.267-.149.47l-.312-.012c-.064-.34.006-.535-.032-.762Zm.058 1.669c-.107-.074-.03-.064-.05-.12l.05.12Zm1.723-2.484.003-.048.23-.17c.04.265.025.705-.035 1.033-.136-.106-.161-.554-.198-.815Zm0 .815c.052-.086.104-.172.154-.258l-.09.254-.064.004Zm1.485-.771.043-.003c.012.989-.598 1.169-1.4 1.54l-.128.009.5-1.036.985-.51Zm-1.51-1.932c.008.026.017.05.024.077l-.063.046-.191-.258.23.135Zm-.23.43.007-.045.056-.004.192.258c-.148-.07-.172-.088-.255-.21Zm.254.66-.343.323-.737-1.07-.956-.83.21-.164c.463.2 1.273.58 1.436 1.057.053.155-.13.283-.006.412.148.154.296.044.397.27l-.001.002Zm-2.148 1.613.078.03.034.745-.119-.028c-.112-.083-.19-.467-.088-.634l.095-.113Zm-.564 1.294.082-.003.085.202-.13.05-.125.006c.03-.085.06-.17.088-.255Zm-.232 4.126-.11-.377c.157-.045.313-.09.47-.137l.04-.002a.59.59 0 0 0-.005.035l-.395.48Zm-.365-1.032c.047-.152.08-.175.165-.26l.07.029.02.066-.157.154-.098.01Zm.12.258-.12-.132.255-.126-.066.253-.069.005Zm-.268 1.17c-.036-.028-.07-.057-.106-.087l.078-.005.393-.304.038.31-.301.206-.102-.12Zm.02 2.956c-.613.026-.98-.13-1.48-.174l-.573-1.133-.11-.114c.962-.114 1.567-.578 2.28-.9.252.24.823 1.463.32 2.004-.12.185-.255.204-.438.317h.001Zm-2.632-1.273.23-.015c.347.233.583.65.749 1.033l-1.019-.295c.076-.258.108-.52.04-.723Zm-.732-.974 1.148-.331 1.804.176.032.09c-.537.243-1.148.447-1.764.759-.667.053-.828-.196-1.29-.36l.071-.334h-.001Zm-.071 1.216.023-.224.439-.033c.036.195.074.304.02.516l-.482-.26Zm-.51.404.171-.094c.21-.14.367.046.593.119l-.09.088-.673-.113h-.001Zm.495-.403-.166-.075-.074-.183.255.016-.015.242Zm-.749 0 .255.219c0 .135-.012.12-.043.297l-.212-.516Zm-.66-.967c.239-.073.557-.057.915-.065l-.333.258-.685-.067.103-.126ZM8.436 4.148c.473-.452 1.659-.317 1.956-.03l.08-.007c-.395.369-1.007.41-1.383.776-.295-.196-.539-.322-.653-.74Zm2.6.739.2.227c-.178.01-.365.02-.552.037-.421.036-.837.099-1.128.25l-.038.002a51.592 51.592 0 0 1-.063-.1 3.644 3.644 0 0 1 1.544-.413l.037-.003Zm.992-1.29c.329.33.82.526.99 1.032-.69-.321-1.752-.316-2.29-.827.474.1.878.063 1.3-.205Zm.227 1.806.944.13.074-.006-.757.65c-.12-.24-.148-.563-.261-.774Zm1.213 1.104-.195-.03.254-.042-.06.072h.001Zm-.195-.617.233-.23.021.259-.169-.037-.085.008Zm.462 8.54-.112.005-.096-.09.074-.097.18-.07-.046.253v-.001Zm-.203.472a4.53 4.53 0 0 1 .094-.108l.008-.1.148.235-.255.023.005-.05Zm-.101.824-.158-.19.509-.068-.243.25-.108.008Zm.096.774-.509-.061.36-.197.15.258h-.001Zm-.357-.728.103.098-.369.094-.395.02.55-.258.111.046ZM11.746 4.629c.297.008.611.083.763.258-.205-.02-.574.013-.667-.145l-.096-.113Zm.258 1.032c.145.127.196.277.17.516-.224-.077-.166-.322-.17-.516Zm.25 1.627.009-.044c.507-.11.616.066.385.224-.2-.028-.29-.103-.393-.18h-.001Zm.653 6.63.111.029a1.467 1.467 0 0 0-.004.036l-.25.194.104-.255.039-.003Zm-.14-6.293.19-.157.061.258-.254-.056.002-.045h.001Zm.76 6.9-.615.16-.148.008c0-.008.002-.017.004-.025.23-.046.378-.122.514-.233l.216.04.03.05h-.001Zm-.439-.606-.07-.143.175-.115.08.043-.1.208-.085.007Zm-1.597 1.785.303-.236.938.08.032.07-.634.366c-.235-.04-.438-.143-.56-.286l-.08.006h.001Zm-.471.022.47.258-.763-.135c.098-.04.195-.082.293-.123Zm-.038.527-.003.062-.145.08-.107.014.004-.062c.111-.147.092-.098.25-.094h.001ZM9.782 5.75a6.03 6.03 0 0 0-.073-.077c.253-.138.652-.204 1.044-.235.323-.027.641-.03.869-.035l.124.774c-.333-.036-.65-.08-.993-.095a5.2 5.2 0 0 0-.888.032 40.835 40.835 0 0 0-.083-.364Zm.374 10.355.062.11-.06.23-.703.055c.075-.23.187-.341.308-.516l.393.12Zm-.868-.895c-.32-.018-.758-.252-.852-.516l1.019.259-.167.257Zm.358-.014-.191.014.006-.062.212-.196c-.01.08-.018.162-.027.244Zm-.7-9.437.31-.098.199.25-.21.008-.3-.16h.001Zm-.004 11.08c-.017.056-.032.113-.048.17a.917.917 0 0 0-.074.007l-.129-.258.255.026-.004.055Zm.141-1.113.594.12.032.08-.461.574-.557-.082.392-.692Zm4.444-8.088.115-.17h.042l.32.08.032.046-.357.132a36.47 36.47 0 0 0-.152-.088Zm.689-.834-.18-.11c.183.067.078-.01.18.11Zm-.058 1.18-.122-.104.255-.154-.133.258Zm-.122 1.806.396.098c.107.042.104.053.113.16-.17-.065-.454-.11-.509-.258Zm.04-.703.054-.07.161.257-.255-.05.04-.137Zm-5.157 8.49.027.069-.343.13-.167.014.004-.035.117-.183c.162-.075.166-.026.362.006Zm-.737-12.95c.222.167.28.37.245 1.034-.146-.187-.235-.584-.245-1.032v-.001Zm.146-.514L8.31 4.3l-.127.009.146-.196h-.001Zm-.146.258c-.007.062-.012.124-.02.186l-.235-.043.194-.14.06-.003h.001Zm0 14.968.126-1.314.892-.235-.938 1.5-.08.049Zm.063-3.532.137-.081c.125.148.013.36-.105.516-.098-.092-.109-.15-.083-.36l.05-.075h.001Zm-.827-.126.293-.471.47.276c-.16.252-.323.504-.485.756-.146-.13-.236-.321-.278-.56v-.001Zm0 2.02.47-.427.221.02.073.12c-.02.126-.038.25-.056.376l-.708-.088Zm-.763-.35.56-.335.426.067.032.059-.449.39c-.224-.023-.373-.083-.49-.185l-.08.005h.001Zm-.075-.498.205-.095.088.019.036.042-.593.197-.17-.06.434-.103Zm-.689-.242.15-.363c.278-.036.344.1.553.188l.06.092-.311.213-.253.017-.199-.147Zm-.51 1.059.371-.654c.246 0 .276.02.377.15.045.076.006.035-.092.052l-.023.225.386.06c-.076.189-.088.164-.202.284-.38.02-.551-.052-.816-.117h-.001Zm-.428-.912.647.195.036.077-.415.502-.603-.198.335-.576ZM2.46 16.06l.008-.077.361.278.031.074c-.751.58.398 2.47 1.705 1.245l.562.226c-.216.385-.587.537-.978.755-.935.078-2.244-1.45-1.69-2.501h.001Zm.872.264.014.175c-.07-.053-.14-.104-.208-.157l-.047-.101.24.083h.001Zm1.286 1.096-.465.36c-.916.096-1.287-.538-1.317-1.317l.179-.216.078-.006c.461.363.869.917 1.495 1.1l.03.079Zm-.887-3.76c-.083-.06-.088-.09-.13-.192l.174-.662.203-.178.131.192-.378.84Zm-.13.223.401-.95.082-.047c.185.326.453.474.534.917l-.604.63a1.223 1.223 0 0 1-.414-.55h.001Zm.763.79.51-.497.253.517a102.17 102.17 0 0 0-.763-.02Zm1.272-5.215c-.241.515-.562.865-.754 1.364-.084-.453.422-1.104.585-1.504l.078-.045.091.185Zm0-1.42c.379-.117.633-.331.904-.571l.115.344-.322.43-.697-.202v-.001Zm1.273.027-.138.176-.116-.02.002-.028.232-.21.02.082Zm-.2-1.112.04-.002.16.337-.06.179c-.233-.122-.224-.267-.14-.514Zm-.048 7.48.235.17-.241-.106a1.04 1.04 0 0 1 .006-.063Zm-.004.26.252.109a.934.934 0 0 0-.004.03l-.54.377c-.155-.07-.174-.21-.22-.36l.005-.032.507-.124Zm-.753-.517.242.098-.13.075-.125.014.013-.187Zm-.013-5.16c.306.086.209.028.222.257-.14-.082-.15-.121-.222-.258Zm0 4.609.021-.223c.119.083.16.132.234.258a72.64 72.64 0 0 0-.255-.035Zm.51-3.223c-.096.123-.092.09-.255.16l.111-.257.143.097h.001Zm0-1.038-.16.167c-.16-.09-.085-.054-.013-.221l.095-.037.077.09h.001Zm-.021-.44-.234-.167c.18.069.138.027.234.168Zm-.489 4.736.255.203c-.13-.003-.2-.031-.255-.203Zm.764-.01-.104.01-.089-.164-.062-.08.138-.014c.039.083.077.166.117.248Zm-.14-4.778L6.4 8.758c.112.078.038.002.114.115l.001-.001Zm.015 4.25-.13-.27.055-.222.032-.002.168.516a51.788 51.788 0 0 0-.125-.022Zm-.667 3.003.028.034-.091.34a.696.696 0 0 1-.418-.515l.481.142v-.001Zm-.736.375.255.226c-.163-.072-.173-.07-.255-.226Zm.44-2.288.03.223-.215-.258.185.035Zm-.252 1.207-.188-.467c.223.085.397.34.51.516l-.322-.05Zm.2-4.594.063-.002-.186.258c-.03-.064.007-.125.11-.2l.013-.057Zm-.133 2.218-.051.102-.146-.113-.058-.123.2-.022.055.156ZM3.6 15.21c.51.332 1.377.64 1.527 1.29A4.233 4.233 0 0 1 3.6 15.21Zm1.323-.25.204.25-.509-.258.305.008Zm1.864.766-.387-.39.677-.642.087.707-.377.325Zm.377.43.067-.167.09-.005.097.258-.254-.085Zm.343-.946-.089-.258.185.034-.096.224Zm-.343-8.69.002-.023c.084-.02.168-.04.252-.062l-.176.258-.078-.173Zm-2.567 5.335-.233-.516c.299.065.25.278.233.516Zm-.623.258c-.218-.151-.357-.452-.374-.774.447.105.422.28.51.689l-.136.085Zm-.263-1.347c-.325-.307.148-1.535.356-1.818.11-.14.248-.136.43-.19l.121.03c-.306.543-.512 1.28-.585 2.035l-.322-.057Zm-.475 4.186.155.26-.139.326-.08.085c.114.016.14-.082.31-.221.33.535.834 1.047 1.39 1.338l-.303.534-.92-.592c-.105-.195.04-.42-.129-.538-.153-.108-.35.048-.506 0l-.432-.395c.127-.284.249-.562.5-.707l.154-.09Zm-.88-2.846c.035-.257.084-.512.149-.764l.034-.003.133.767.07.4c.2.558.402 1.115.604 1.67-.484-.263-.783-.874-.74-1.696-.116.265-.02.682.018.916-.297-.252-.335-.753-.269-1.29h.001Zm-.442.265a.94.94 0 0 1-.086-.31 2.032 2.032 0 0 1 .004-.435l.044-.092.197-.195-.111.72-.048.31v.002Zm17.722 2.58-.509-.196.494-.061.015.258v-.001Zm-13.47 4.2.133-.07-.154.257.02-.186.001-.001Zm-3.839-8.844-.217-.02c-.27-.09-.523-.404-.546-.754.413.037.553.233.757.472.002.1.005.2.006.302Zm-.03-.021c.03-.557-.395-.905-.947-.89.094-.782.774-1.182 1.38-1.445l.117-.01c-.101.983-.024 1.829-.391 2.679-.271.626-1.232.614-1.18 1.58l.007.08c.137 1.284 1.533 1.545 1.726 2.674-2.07 1.053.453 5.478 2.09 2.879.294.042.555.175.92.047.17-.094.203-.17.269-.366l.585.303.03.074c-.536.416-.914.987-1.49 1.377l.055-.158-.15-.027-.083.045-.075.35c.329.336 1.326-.88 1.618-1.117-.165.577-.573.874-.8 1.402l.07.072c.43-.308.957-1.18 1.037-1.843l.644.107c-.807 1.09-2.88 3.49-3.97 4.132.166-.521.43-.92.564-1.347l-.078.006a27.577 27.577 0 0 0-.07-.072c-.265.522-.702.889-.78 1.593.047.07.106.13.174.179 1.296-.216 3.46-3.473 4.494-4.363-.28 2.81-1.786 3.248-3.092 4.95 1.187-.592 1.907-2.102 2.922-2.94-.112 1.173-.391 3.796-1.093 4.263l.116-.01c.788-.49.834-2.504 1.097-3.534l.112-1.083 1.125-1.58.082-.045c.126.395.696.824 1.313.709l.443-.186 1.112.416c.146 1.6.09 2.497-.923 3.715 1.035-.53 1.415-2.567 1.07-3.65 2.407.28 2.31-.532 1.854-2.285l.423.007c-.078-.117-.289-.03-.45-.12-.073-.047-.059-.038-.104-.108.572-.645 1.95-.004 1.66 1.067.396-.888-.479-1.678-1.322-1.36.36-.427.796-.778 1.024-1.343l.082-.044 1.98 2.08.117-.01.09-.121c-.63-.746-1.259-1.493-1.887-2.24l.202-.092a.411.411 0 0 1 .349-.121 13.31 13.31 0 0 1-.1-.05c1.011.1 2.303.944 3.358.672.097-.17.102-.26.043-.425 1.124.028 3.146-.348 3.79-.894-1.73.363-3.678.486-5.266.274l-1.407-.165-.079.006.379-.68c1.16-.022 4.202-.051 4.817-.78l-.136-.181-.53-.076a.394.394 0 0 0-.06.197l.42.045c-.912.23-3.452.715-4.281.432-.087-.106-.023-.474-.019-.74a.963.963 0 0 0-.006-.141c1.192-.356 2.077-1.158 2.44-2.368.207-.693.07-1.603.518-2.035.286.025.344.146.554.228-.111-.154-.27-.24-.469-.31l-.373.257c-.341.132-.698-.213-1.277.056-.47-.402-.735-1.037-1.37-1.28l-.065-.11.77-.75c-.252.212-.509.46-.766.71l-.516-.23-.03-.075c.588-.416 1.11-.57 1.779-.438.031.062.064.123.096.185-.031.053-.059.068-.086.083l-.225-.06a.857.857 0 0 0 .299.093l.085-.083.013-.116c-.146-.13-.191-.224-.478-.234l.137-.202c-.328.226-.994.286-1.32.482l.754-.594.09-.121-1.395.832c-.298-.02-.615-.16-.776-.327a38.2 38.2 0 0 0-.077.006l1.656-1.12-.027-.113c-.628.366-1.257.732-1.884 1.099l-.602-.148.056-.541 4.317-3.39.077-.006-.061-.15c-.16-.075-.817.458-1.065.617-.956.613-1.801 1.376-2.741 1.93.388-.493 1.098-.984 1.216-1.702l-.19-.024-.296.252.322-.14c-.208.633-1.15 1.763-1.682 2.12l-.062-.148c.346-.582.687-1.365.527-2.112l-.29-.17-.311.023c.199.079.334.098.48.195.093.724-.263 1.214-.455 1.8l-.082.044c-.128-.237-.12-.351-.383-.394l-.023-.152.18-.244.124-.086c.042.08.044.05.057.188a.387.387 0 0 0 .059-.196l-.147-.066-.389.412c-.325-.217-.683-.445-1.14-.53.259-.537 1.046-1.4.64-2.081-.496-.828-2.189.126-2.809.783a1.233 1.233 0 0 0-.186.244c.061-.049.123-.097.186-.144.612-.456 2.241-1.548 2.594-.675.37.487-.339 1.424-.532 1.805-.66-.067-1.35-.13-2.06-.116a7.422 7.422 0 0 0-2.201.354c-.36.119-1.896 1.039-1.955 1.027l-.7-.678-1.464-.735-.008.077-.086.083 1.876 1.588-.286.175c-.772-.585-1.304-.94-2.453-1.24l-.194.016c.671.462 1.347.885 2.022 1.309l.135.182c-.482.203-.686.625-1.093.887-.636-.304-1.225-.58-1.996-.813l-.054.158 1.444.93.078-.006-.249.172c-.115.387-.34.836-.528 1.382-.72.586-1.653.55-1.798 1.745-.23.063-.392.083-.602.237l-.016.155c.132.184 1.301.679 1.58.727l.172-.166h-.001Zm8.54-8.256.107.02-.143-.018c-.025 0-.05.002-.074.003.113-.21.445-.262.764-.24l-.022.153-.624.03-.008.05v.002Zm.446.277.3-.098c.13-.216.204-.445.138-.654-.309-.061-.487.014-.776.136a50.94 50.94 0 0 0-.157.257l-.06.1a.578.578 0 0 0 .06.06c.098.08.216.108.433.09.06.102-.01.057-.117.085l.18.024h-.001Zm7.403 2.323-.322.06.198-.014.227.098-.344.63c.177-.21.353-.357.428-.674l-.187-.1Zm-1.85 10.065c-.08-.143-.167-.237-.254-.26.077.074.166.16.254.26Zm-1.018 3.096-.254.148.195-.018.06-.13h-.001Zm1.018-3.096c.259.292.453.852.397 1.29.294-.635-.041-1.031-.397-1.29Z"/></g><defs><clipPath id="a"><path fill="#fff" d="M0 .5h24v24H0z"/></clipPath></defs></svg>