<svg xmlns="http://www.w3.org/2000/svg" width="24" height="25" fill="none"><path fill="#fff" d="M0 .5h24v24H0z"/><path fill="#000" fill-rule="evenodd" d="M4.898 5.265v5.585c.85-1.014 1.87-1.525 3.052-1.525.608 0 1.154.116 1.642.347.491.23.858.523 1.105.88.249.36.418.755.508 1.19.09.434.136 1.108.136 2.02v5.973H8.699v-5.378c0-1.067-.048-1.744-.148-2.03-.1-.29-.277-.516-.531-.685-.254-.17-.571-.257-.953-.257-.438 0-.83.111-1.173.328-.347.218-.598.546-.757.983-.161.438-.242 1.085-.239 1.94l-.003 5.1H2.256V5.264h2.642Zm10.403 0v5.585c.85-1.014 1.869-1.525 3.051-1.525.607 0 1.155.116 1.646.347.488.23.855.523 1.101.88.25.36.418.755.509 1.19.09.434.136 1.108.136 2.02v5.973h-2.64v-5.378c0-1.067-.05-1.744-.15-2.03-.101-.29-.277-.516-.531-.685-.252-.17-.572-.257-.954-.257-.438 0-.83.111-1.172.328-.345.218-.596.546-.758.983-.158.438-.238 1.085-.238 1.94v5.1h-2.64V5.264h2.64Z" clip-rule="evenodd"/></svg>