<svg width="20" height="20" viewBox="0 0 20 20" fill="none" xmlns="http://www.w3.org/2000/svg">
<path d="M10.4317 4.42359C10.8446 3.95819 11.3466 3.58026 11.9081 3.31214C12.4695 3.04401 13.079 2.89113 13.7006 2.86252C14.3221 2.83391 14.9431 2.93015 15.5268 3.14556C16.1105 3.36097 16.6451 3.69118 17.0991 4.11669C17.553 4.54219 17.9171 5.05435 18.1698 5.62292C18.4225 6.19149 18.5587 6.80494 18.5703 7.42703C18.5819 8.04912 18.4688 8.66722 18.2375 9.24484C18.0062 9.82245 17.6615 10.3479 17.2238 10.79L10.3809 17.6986C10.3311 17.7489 10.2718 17.7889 10.2065 17.8161C10.1411 17.8434 10.071 17.8574 10.0002 17.8574C9.92942 17.8574 9.85931 17.8434 9.79397 17.8161C9.72862 17.7889 9.66932 17.7489 9.61951 17.6986L2.77665 10.79C1.94665 9.95205 1.46562 8.83028 1.43075 7.65134C1.39588 6.4724 1.80977 5.32416 2.5888 4.43859C4.43737 2.33645 7.71023 2.32931 9.5688 4.42359L10.0002 4.90931L10.4317 4.42359Z" fill="#1D6BF3"/>
</svg>
