<svg xmlns="http://www.w3.org/2000/svg" width="24" height="25" fill="none"><g fill="#1A1B22" clip-path="url(#a)"><path d="m13.845 17.767-3.262 3.262a5.028 5.028 0 0 1-7.111-7.109l3.262-3.265a1 1 0 0 0-1.415-1.414l-3.261 3.265A7.028 7.028 0 1 0 12 22.443l3.262-3.262a1 1 0 0 0-1.414-1.414h-.003ZM21.944 2.561A6.979 6.979 0 0 0 16.975.5a6.982 6.982 0 0 0-4.968 2.057L8.74 5.82a1 1 0 1 0 1.414 1.415l3.265-3.262A4.993 4.993 0 0 1 16.973 2.5a5.028 5.028 0 0 1 3.554 8.583l-3.262 3.262a1 1 0 1 0 1.415 1.415l3.262-3.26a7.037 7.037 0 0 0 .002-9.939Z"/><path d="m14.293 8.793-6 6a1 1 0 1 0 1.414 1.414l6-6a1 1 0 0 0-1.414-1.414Z"/></g><defs><clipPath id="a"><path fill="#fff" d="M0 .5h24v24H0z"/></clipPath></defs></svg>