<svg xmlns="http://www.w3.org/2000/svg" width="24" height="25" fill="none"><path fill="#1A1B22" d="M17 13.63v3.697h-2.143v-3.45c0-.866-.31-1.457-1.086-1.457-.592 0-.945.398-1.1.784-.056.138-.071.33-.071.522v3.601h-2.144s.029-5.842 0-6.447H12.6v.913l-.014.021h.014v-.02c.285-.44.793-1.066 1.932-1.066 1.41 0 2.468.922 2.468 2.902ZM8.213 7.771C7.48 7.771 7 8.253 7 8.885 7 9.505 7.466 10 8.185 10h.014c.748 0 1.213-.496 1.213-1.115-.014-.632-.465-1.114-1.199-1.114Zm-1.086 9.556h2.144V10.88H7.127v6.447Z"/><path fill="#1A1B22" d="M6 4.5a2 2 0 0 0-2 2v12a2 2 0 0 0 2 2h12a2 2 0 0 0 2-2v-12a2 2 0 0 0-2-2H6Zm0-2h12a4 4 0 0 1 4 4v12a4 4 0 0 1-4 4H6a4 4 0 0 1-4-4v-12a4 4 0 0 1 4-4Z"/></svg>