<svg xmlns="http://www.w3.org/2000/svg" width="25" height="25" fill="none"><path fill="#1A1B22" d="M12.643 10.48a5.96 5.96 0 0 0-.49-.025 5.888 5.888 0 0 0-5.23 8.586 6.54 6.54 0 0 1 5.721-8.56ZM14.514 21.177a6.658 6.658 0 0 1-1.87.869 5.964 5.964 0 0 0 2.594-.967c2.7-1.816 3.434-5.438 1.637-8.092a5.718 5.718 0 0 0-.291-.385c1.66 2.9.793 6.65-2.07 8.575Z"/><path fill="#1A1B22" d="M16.81 10.445V7.183a.39.39 0 0 0-.18-.323l3.684-5.61h-7.063l-1.187 1.78-1.187-1.78H3.814l3.683 5.61a.391.391 0 0 0-.18.323v3.262a7.5 7.5 0 1 0 9.493 0Zm-1.436-8.82h2.373l-3.31 4.965-1.186-1.78 2.123-3.185Zm.25 6.744.364-.546c.02.046.031.097.031.151v1.582a.373.373 0 0 1-.111.263 7.45 7.45 0 0 0-7.689 0 .375.375 0 0 1-.11-.263V7.974c0-.054.01-.105.03-.151l.365.547h7.12ZM6.38 1.625h2.373l4.247 6.37h-2.373L6.38 1.624Zm5.683 21a6.375 6.375 0 1 1 0-12.75 6.375 6.375 0 0 1 0 12.75Z"/></svg>