<svg xmlns="http://www.w3.org/2000/svg" width="25" height="25" fill="none"><path fill="#1A1B22" d="M19.646 13.828v-3.506a6.538 6.538 0 0 0-1.597-4.267 6.783 6.783 0 0 0-4.028-2.25V2.603c0-.293-.119-.573-.33-.78a1.137 1.137 0 0 0-.795-.323c-.298 0-.585.116-.796.323-.21.207-.329.487-.329.78v1.202a6.783 6.783 0 0 0-4.028 2.25 6.538 6.538 0 0 0-1.597 4.267v3.506a3.37 3.37 0 0 0-1.628 1.205 3.263 3.263 0 0 0-.622 1.905v2.205c0 .293.119.573.33.78.21.207.497.323.795.323h3.532c.26.934.825 1.76 1.61 2.347a4.56 4.56 0 0 0 2.733.907 4.56 4.56 0 0 0 2.733-.907 4.408 4.408 0 0 0 1.61-2.347h3.532c.298 0 .584-.116.796-.323.21-.207.329-.487.329-.78v-2.205a3.263 3.263 0 0 0-.622-1.905 3.369 3.369 0 0 0-1.628-1.205Zm-11.25-3.506c0-1.17.474-2.292 1.318-3.12a4.546 4.546 0 0 1 3.182-1.291c1.193 0 2.338.465 3.182 1.292a4.367 4.367 0 0 1 1.318 3.119v3.308h-9v-3.308Zm4.5 11.027a2.285 2.285 0 0 1-1.117-.3 2.228 2.228 0 0 1-.818-.803h3.87c-.196.333-.478.61-.818.804-.34.193-.724.296-1.117.299Zm6.75-3.308h-13.5v-1.103c0-.293.119-.573.33-.78.21-.207.497-.323.795-.323h11.25c.298 0 .584.116.796.323.21.207.329.487.329.78v1.103Z"/></svg>