<svg xmlns="http://www.w3.org/2000/svg" width="25" height="25" fill="none"><path fill="#1A1B22" d="M12.535 3.5a.61.61 0 0 0-.487.24l-.11.084a6.269 6.269 0 0 0-6.32 1.514 6.058 6.058 0 0 0-1.55 2.543c-.3.968-.357 1.999-.166 2.996a1.95 1.95 0 0 0-.062.06l-.973.963a1.967 1.967 0 0 0-.44.65 2.016 2.016 0 0 0 .44 2.203 2.04 2.04 0 0 0 1.827.555 2.038 2.038 0 0 0 1.936 1.604c.013.498.212.991.595 1.371s.883.579 1.384.592c.013.497.213.992.596 1.372.367.359.847.568 1.352.59a2.053 2.053 0 0 0 1.396-.471l.546.54a2.057 2.057 0 0 0 2.893 0c.382-.379.58-.87.598-1.366a2.03 2.03 0 0 0 1.969-1.956 2.037 2.037 0 0 0 1.92-1.649c.32.058.65.038.963-.06.312-.097.598-.268.834-.5.188-.184.338-.405.44-.65a2.016 2.016 0 0 0 0-1.554 1.968 1.968 0 0 0-.44-.65l-.899-.89.184-.708a5.922 5.922 0 0 0-.525-4.287 5.97 5.97 0 0 0-5.257-3.13h-1.536a3.958 3.958 0 0 0-.198-.006h-.91Zm3.062 4.776 3.002 2.978.004.002 2.173 2.157a.74.74 0 0 1 .223.535.757.757 0 0 1-.763.757c-.2 0-.394-.08-.54-.222l-1.649-1.635a.64.64 0 0 0-.899 0l-.017.016a.615.615 0 0 0-.186.446.63.63 0 0 0 .186.446l1.286 1.275c.3.295.3.776 0 1.073a.77.77 0 0 1-.999.07.64.64 0 0 0-.835.06.621.621 0 0 0-.051.829.753.753 0 0 1-.067.996.77.77 0 0 1-1.011.062.641.641 0 0 0-.842.048.625.625 0 0 0-.054.833.763.763 0 0 1-.066 1.013.783.783 0 0 1-1.095 0l-.54-.536.197-.196a1.97 1.97 0 0 0 .441-.65 2.016 2.016 0 0 0 0-1.554 2.037 2.037 0 0 0-1.824-1.242 2.003 2.003 0 0 0-.595-1.372 2.037 2.037 0 0 0-1.384-.59 2.004 2.004 0 0 0-.596-1.372 2.07 2.07 0 0 0-.848-.504 2.027 2.027 0 0 0-.978-.05 2.004 2.004 0 0 0-.553-1.013 2.068 2.068 0 0 0-.745-.47c-.278-.101-.574-.14-.868-.113a4.938 4.938 0 0 1 .224-2.237A4.82 4.82 0 0 1 6.515 6.23a5.043 5.043 0 0 1 1.898-1.178 4.931 4.931 0 0 1 2.205-.23L8.802 6.195a2.167 2.167 0 0 0-.576.649 2.231 2.231 0 0 0-.224 1.705 2.244 2.244 0 0 0 1.85 1.637 2.21 2.21 0 0 0 1.63-.423l1.967-1.487h2.147l.001-.001ZM9.54 7.23l3.236-2.446h.669c.061 0 .122.002.184.005h1.55c1.752 0 3.351.958 4.166 2.47a4.603 4.603 0 0 1 .409 3.334l-.004.013-3.445-3.428a.615.615 0 0 0-.44-.188h-2.622a.612.612 0 0 0-.369.124l-2.132 1.612a.988.988 0 0 1-1.536-.517.93.93 0 0 1 .093-.71.894.894 0 0 1 .241-.27Zm.552 11.065.013-.012.97-.964.012-.01a.773.773 0 0 1 1.069.01.737.737 0 0 1 .223.536.757.757 0 0 1-.223.535l-.973.964a.773.773 0 0 1-1.08 0 .739.739 0 0 1-.223-.526.757.757 0 0 1 .211-.533h.001Zm.096-1.879-.012.012-.971.964-.013.011a.772.772 0 0 1-1.067-.012.738.738 0 0 1-.223-.53.757.757 0 0 1 .214-.532l.009-.009.971-.964.009-.009a.773.773 0 0 1 .537-.213.773.773 0 0 1 .698.462.758.758 0 0 1-.152.82Zm-1.99-1.952-.973.964-.009.01a.772.772 0 0 1-1.07-.01.738.738 0 0 1-.224-.535.757.757 0 0 1 .223-.536l.971-.963a.773.773 0 0 1 .54-.222.773.773 0 0 1 .706.463.756.756 0 0 1-.156.822l-.009.007ZM5.817 12.9l-.97.964a.772.772 0 0 1-.541.222.772.772 0 0 1-.707-.467.757.757 0 0 1 .166-.827l.973-.964a.773.773 0 0 1 1.08 0 .74.74 0 0 1 .223.536.757.757 0 0 1-.224.536Z"/></svg>