<svg xmlns="http://www.w3.org/2000/svg" width="25" height="25" fill="none"><path fill="#1A1B22" d="M19.906 12.5c0-1.95-.68-3.604-2.038-4.963C16.51 6.179 14.856 5.5 12.906 5.5v-2c1.25 0 2.421.237 3.513.712a9.167 9.167 0 0 1 2.85 1.925 9.168 9.168 0 0 1 1.925 2.85 8.717 8.717 0 0 1 .712 3.513h-2Zm-4 0c0-.833-.291-1.542-.875-2.125a2.893 2.893 0 0 0-2.125-.875v-2c1.384 0 2.563.487 3.538 1.462.975.975 1.462 2.155 1.462 3.538h-2Zm4.95 9c-2.15 0-4.245-.48-6.287-1.438a19.045 19.045 0 0 1-5.425-3.8 19.045 19.045 0 0 1-3.8-5.425C4.386 8.796 3.906 6.7 3.906 4.55c0-.3.1-.55.3-.75.2-.2.45-.3.75-.3h4.05a.96.96 0 0 1 .625.225.88.88 0 0 1 .325.575l.65 3.5a1.8 1.8 0 0 1-.012.637 1.027 1.027 0 0 1-.288.513L7.881 11.4c.7 1.2 1.58 2.325 2.638 3.375a18.63 18.63 0 0 0 3.487 2.725l2.35-2.35c.15-.15.346-.263.588-.338.242-.075.479-.095.712-.062l3.45.7c.234.05.425.162.575.337.15.175.225.38.225.613v4.05c0 .3-.1.55-.3.75-.2.2-.45.3-.75.3ZM6.931 9.5l1.65-1.65-.425-2.35H5.931c.084.683.2 1.358.35 2.025.15.667.367 1.325.65 1.975Zm8.95 8.95c.65.283 1.313.508 1.988.675.675.167 1.354.275 2.037.325v-2.2l-2.35-.475-1.675 1.675Z"/></svg>