<svg xmlns="http://www.w3.org/2000/svg" width="24" height="25" fill="none"><g fill="#1A1B22" clip-path="url(#a)"><path d="M1 5.25h2.736a3.728 3.728 0 0 0 7.195 0H23a1 1 0 1 0 0-2H10.931a3.728 3.728 0 0 0-7.195 0H1a1 1 0 0 0 0 2ZM7.333 2.5a1.75 1.75 0 1 1 0 3.5 1.75 1.75 0 0 1 0-3.5ZM23 11.5h-2.736a3.727 3.727 0 0 0-7.194 0H1a1 1 0 0 0 0 2h12.07a3.727 3.727 0 0 0 7.194 0H23a1 1 0 1 0 0-2Zm-6.333 2.75a1.75 1.75 0 1 1 0-3.5 1.75 1.75 0 0 1 0 3.5ZM23 19.75H10.931a3.728 3.728 0 0 0-7.195 0H1a1 1 0 0 0 0 2h2.736a3.728 3.728 0 0 0 7.195 0H23a1 1 0 1 0 0-2ZM7.333 22.5a1.75 1.75 0 1 1 0-3.5 1.75 1.75 0 0 1 0 3.5Z"/></g><defs><clipPath id="a"><path fill="#fff" d="M0 .5h24v24H0z"/></clipPath></defs></svg>