<svg xmlns="http://www.w3.org/2000/svg" width="24" height="25" fill="none"><path fill="#1A1B22" d="M22.265 2.928a2.048 2.048 0 0 0-2.078-.324L2.266 9.839a2.043 2.043 0 0 0 .104 3.818l3.625 1.261 2.02 6.682c.028.089.068.174.119.252.008.012.019.021.027.033a.988.988 0 0 0 .281.265c.095.063.2.11.31.136l.013.001.006.003c.067.014.135.02.203.02l.018-.003a.992.992 0 0 0 .302-.052c.022-.008.041-.02.063-.03a.994.994 0 0 0 .205-.114l.152-.129L12.416 19l4.03 3.122c.355.276.792.427 1.241.427a2.054 2.054 0 0 0 2.008-1.633l3.263-16.017a2.03 2.03 0 0 0-.693-1.97ZM9.37 15.236a.994.994 0 0 0-.272.506l-.31 1.504-.784-2.593 4.065-2.117-2.699 2.7Zm8.302 5.304-4.763-3.69a1 1 0 0 0-1.353.12l-.866.955.306-1.486 7.083-7.084a1 1 0 0 0-1.169-1.593L6.745 13.054 3.02 11.691 20.999 4.5 17.672 20.54Z"/></svg>