<svg xmlns="http://www.w3.org/2000/svg" width="24" height="25" fill="none"><g clip-path="url(#a)"><path fill="#1A1B22" d="M20.67 4.193A11.981 11.981 0 0 0 11.996.501C5.38.492.008 5.85 0 12.467a11.981 11.981 0 0 0 3.692 8.667c.007.007.01.017.017.023.07.067.145.123.215.188.193.171.385.348.588.514.11.085.222.171.334.25.192.143.384.286.584.418.136.086.277.171.417.257.185.112.369.224.56.326.162.085.327.16.492.237.18.086.357.171.541.249.185.077.37.137.556.203.187.067.348.129.527.184.203.06.41.108.616.158.171.042.337.09.514.125.236.047.476.077.716.11.148.02.293.049.443.064.393.038.788.06 1.188.06.399 0 .795-.022 1.187-.06.15-.015.295-.044.443-.065.24-.032.48-.062.717-.11.17-.034.342-.085.514-.124.205-.05.413-.097.615-.158.179-.055.352-.122.527-.184.175-.061.373-.128.556-.203.182-.076.362-.164.541-.249.165-.078.33-.152.492-.237.191-.102.376-.215.56-.326.14-.085.28-.163.417-.257.2-.132.393-.275.585-.418.11-.086.224-.163.333-.25.203-.163.396-.336.589-.514.07-.065.145-.121.215-.188.006-.006.009-.016.016-.023 4.778-4.578 4.94-12.162.363-16.94Zm-1.926 16.044a9.903 9.903 0 0 1-.77.61 9.51 9.51 0 0 1-.829.537c-.15.086-.304.171-.46.257a11.79 11.79 0 0 1-.864.397 8.65 8.65 0 0 1-.47.171c-.146.05-.29.101-.437.145-.171.051-.35.093-.528.136-.139.033-.276.07-.416.097-.203.04-.41.067-.619.095-.118.016-.236.037-.355.049-.329.032-.662.05-.999.05-.337 0-.67-.018-.999-.05-.119-.012-.236-.033-.355-.049-.208-.028-.415-.055-.618-.095-.14-.027-.278-.064-.417-.097a11.903 11.903 0 0 1-.528-.136c-.146-.044-.291-.095-.436-.145-.158-.055-.317-.11-.471-.171-.154-.061-.3-.128-.447-.195a7.846 7.846 0 0 1-.877-.458 10.786 10.786 0 0 1-.829-.538 10.101 10.101 0 0 1-.77-.61c-.038-.029-.072-.065-.109-.097a6.875 6.875 0 0 1 4.673-6.422 5.08 5.08 0 0 0 4.365 0 6.875 6.875 0 0 1 4.672 6.422c-.036.032-.07.065-.107.097ZM9.008 7.37a3.427 3.427 0 1 1 4.668 4.667c-.005 0-.01 0-.015.005a3.632 3.632 0 0 1-.716.304c-.045.013-.086.03-.133.04-.086.023-.176.038-.264.054-.166.029-.334.046-.503.05h-.098a3.464 3.464 0 0 1-.502-.05c-.086-.016-.177-.03-.264-.053-.046-.011-.086-.028-.133-.041a3.627 3.627 0 0 1-.717-.304l-.015-.005a3.427 3.427 0 0 1-1.308-4.667Zm11.363 11.07a8.611 8.611 0 0 0-4.587-5.907 5.141 5.141 0 1 0-7.575 0 8.612 8.612 0 0 0-4.588 5.907C.336 13.813 1.424 7.397 6.052 4.11a10.278 10.278 0 0 1 16.227 8.385c0 2.133-.667 4.21-1.908 5.945Z"/></g><defs><clipPath id="a"><path fill="#fff" d="M0 .5h24v24H0z"/></clipPath></defs></svg>