<svg width="100%" height="auto" viewBox="4 4 8 8" fill="none" xmlns="http://www.w3.org/2000/svg">
<path d="M1.1084 7.3457C1.33691 7.3457 1.53906 7.2666 1.68848 7.1084L3.99121 4.80566L6.29395 7.1084C6.44336 7.25781 6.63672 7.3457 6.87402 7.3457C7.32227 7.3457 7.67383 6.99414 7.67383 6.5459C7.67383 6.32617 7.58594 6.13281 7.43652 5.9834L5.125 3.67188L7.43652 1.35156C7.60352 1.18457 7.68262 1.00879 7.68262 0.797852C7.68262 0.349609 7.33105 -0.00195312 6.88281 -0.00195312C6.66309 -0.00195312 6.47852 0.0683594 6.31152 0.235352L3.99121 2.54688L1.6709 0.244141C1.52148 0.0859375 1.33691 0.00683594 1.1084 0.00683594C0.660156 0.00683594 0.308594 0.349609 0.308594 0.797852C0.308594 1.01758 0.396484 1.21094 0.554688 1.36035L2.85742 3.67188L0.554688 5.99219C0.396484 6.13281 0.308594 6.33496 0.308594 6.5459C0.308594 6.99414 0.660156 7.3457 1.1084 7.3457Z" fill="#797981"/>
</svg>
